<svg width="64" height="64" viewBox="0 0 64 64" xmlns="http://www.w3.org/2000/svg">
  <defs>
    <linearGradient id="rk-tw-bg" x1="0" y1="0" x2="1" y2="1">
      <stop offset="0%" stop-color="#E6F3FF"/>
      <stop offset="100%" stop-color="#C4E0FF"/>
    </linearGradient>
  </defs>
  <!-- Внешний мягко-скруглённый квадрат -->
  <rect x="6" y="6" width="52" height="52" rx="18" fill="url(#rk-tw-bg)"/>

  <!-- Минималистичная «птичка» -->
  <path d="M46 22.5a10.1 10.1 0 0 1-3 0.9 5.2 5.2 0 0 0 2.3-2.9
           10.3 10.3 0 0 1-3.4 1.3 5.1 5.1 0 0 0-8.7 3.5c0 0.4 0 0.7 0.1 1.1
           A14.5 14.5 0 0 1 20.7 21a5.1 5.1 0 0 0 1.6 6.9 5.1 5.1 0 0 1-2.3-0.6v0.1
           a5.1 5.1 0 0 0 4.1 5 5.4 5.4 0 0 1-2.3.1 5.1 5.1 0 0 0 4.8 3.6
           10.3 10.3 0 0 1-6.3 2.2A10.8 10.8 0 0 1 18 37
           14.5 14.5 0 0 0 25.9 39.3c9.4 0 14.8-7.8 14.8-14.8v-0.7
           a10.5 10.5 0 0 0 2.6-2.8z"
        fill="#1D3557"/>
</svg>

