<svg width="96" height="96" viewBox="0 0 96 96" fill="none" xmlns="http://www.w3.org/2000/svg">
  <!-- Headband -->
  <path
    d="M28 38C30 28 38 22 48 22C58 22 66 28 68 38"
    stroke="#2563EB"
    stroke-width="4"
    stroke-linecap="round"
    stroke-linejoin="round"
  />

  <!-- Left earcup -->
  <path
    d="M26 40C23 40 22 42 22 45V55C22 58 23 60 26 60H30V40H26Z"
    stroke="#2563EB"
    stroke-width="4"
    stroke-linecap="round"
    stroke-linejoin="round"
  />

  <!-- Right earcup -->
  <path
    d="M70 40H66V60H70C73 60 74 58 74 55V45C74 42 73 40 70 40Z"
    stroke="#2563EB"
    stroke-width="4"
    stroke-linecap="round"
    stroke-linejoin="round"
  />

  <!-- Mic boom -->
  <path
    d="M66 60C66 66 62 70 56 70H48"
    stroke="#2563EB"
    stroke-width="4"
    stroke-linecap="round"
    stroke-linejoin="round"
  />

  <!-- Mic tip -->
  <circle
    cx="46"
    cy="70"
    r="3"
    stroke="#2563EB"
    stroke-width="3"
  />

  <!-- Subtle chat bubble to the right -->
  <path
    d="M60 30H72C75 30 77 32 77 35V41C77 44 75 46 72 46H68L64 49V46H60C57 46 55 44 55 41V35C55 32 57 30 60 30Z"
    stroke="#2563EB"
    stroke-width="3"
    stroke-linecap="round"
    stroke-linejoin="round"
  />

  <!-- Minimal sound waves inside bubble -->
  <path
    d="M61.5 38H63.5M66 36V40M69.5 37H71.5"
    stroke="#2563EB"
    stroke-width="2"
    stroke-linecap="round"
  />
</svg>

